<svg xmlns="http://www.w3.org/2000/svg" viewBox="0 0 144 42"><title>cure_logo</title><g id="Layer_2" data-name="Layer 2"><g id="Layer_1-2" data-name="Layer 1"><g id="New_Logo_-_Standard" data-name="New Logo - Standard"><path d="M144,26.25l-2.65-10.6a3.53,3.53,0,0,0,1.42-1.11c.45-.55.67-.79.79-1a.42.42,0,0,0-.06-.56,1.1,1.1,0,0,0-.55-.28.31.31,0,0,0-.3.16,6.72,6.72,0,0,1-1.3,1.66,5.46,5.46,0,0,1-1.61.55c-.22.07-2,.25-2.19.37a.49.49,0,0,0-.25.38.48.48,0,0,0,.19.42.79.79,0,0,0,.66.11c.16,0,1.8-.31,1.8-.31s3.26,10.44,3.28,10.55a.51.51,0,0,0,.43.23.48.48,0,0,0,.23-.19A.51.51,0,0,0,144,26.25Z" style="fill:#92d400"/><path d="M134.8,23.07a.6.6,0,0,0,.22-.17,2.41,2.41,0,0,1-.37-1.54c0-.61.23-2.13.31-3.37a16.76,16.76,0,0,0-.26-3.14,4.68,4.68,0,0,0,1-.87,6.17,6.17,0,0,0,1-1.65,3.36,3.36,0,0,0-.65-.87,4.12,4.12,0,0,0,.65-1.45,26.21,26.21,0,0,0,.3-3.72,3.27,3.27,0,0,1,.27-1.57,2.79,2.79,0,0,0,.38-.56,5.75,5.75,0,0,0,.3-1.63,10.36,10.36,0,0,0-.1-1.44c0-.36-.13-.5-.37-.23,0-.24,0-.14-.06-.45s-.38-.22-.47.3c0-.5-.08-.69-.29-.71s-.27.53-.3.73c0,0,0-.12,0-.24,0-.37-.23-.41-.36-.32a5.11,5.11,0,0,0-.27,1.41c0,.27-.14.75-.22,1.23a3.15,3.15,0,0,1-.12-.63c0-.19-.36-.51-.57-.46s0,.41,0,.62,0,.42,0,.79a2.62,2.62,0,0,0,0,.75,1.13,1.13,0,0,0,.48.64c.16,2.38-.63,2.52-.89,4.06-.07.43-.14.79-.22,1.1a.63.63,0,0,0-.24-.13A7,7,0,0,1,132.48,11a2.75,2.75,0,0,1-1.18.5l-.16.1c-.07-.12-.14-.27-.21-.42.14-.23.29-.5.51-.8a3.84,3.84,0,0,0,.37-2.69,8.43,8.43,0,0,1-.23-2,2.88,2.88,0,0,0-2.66-2.38A2.63,2.63,0,0,0,126.09,5,3.91,3.91,0,0,0,126,6.42a5.12,5.12,0,0,0,.17,1c0,.15-.28-.12-.46,0s-.11.82,0,1.14.63.79.94.64a4.61,4.61,0,0,0,1,1.57,2.56,2.56,0,0,0,.45.38,4.76,4.76,0,0,1-.07.66c-1.7.26-2.23.2-2.89.33-.36.08-1.31,1.17-3.17,3.26a1.3,1.3,0,0,0,0,.43l-.43.63a6.83,6.83,0,0,0-.4.72l-.43-.66a13.37,13.37,0,0,0-2.2-2.31,1.82,1.82,0,0,0,.1-.45,9.61,9.61,0,0,0-2.23-1.54c-.42-.22-2.06.17-2.66.25l-.31.05c0-.15,0-.3,0-.46a5.6,5.6,0,0,1,.45-.4,5.68,5.68,0,0,0,.52-.65c.11-.21.26-.65.38-.94a.73.73,0,0,0,.43-.17,1,1,0,0,0,.33-.56,1.2,1.2,0,0,0,.09-.59c0-.22-.1-.23-.08-.3a6.34,6.34,0,0,0,.33-.92,4.86,4.86,0,0,0,.16-.93,5.06,5.06,0,0,1-.1-.71,1,1,0,0,0-.31-.77c-.2-.13-.36-.49-.62-.55s-.19-.29-.52-.39a5.72,5.72,0,0,1-.68-.19,1.67,1.67,0,0,0-.7-.34,1.24,1.24,0,0,0-.73.05,1.14,1.14,0,0,1-.56.19c-.25,0-.36,0-.58,0s-.57.14-.62.27-.33.08-.48.32-.71.45-.68.86-.11.39-.22.8a1.23,1.23,0,0,0,0,.83c.1.44,0,.32,0,.57s.11.15.07.35a2.38,2.38,0,0,0,0,.71,4.64,4.64,0,0,0,.18.68.49.49,0,0,0,.25.37,3.69,3.69,0,0,0,.12.81,3.75,3.75,0,0,0,1,1.4c0,.22-.06.44-.09.61l-.17-.05a9.74,9.74,0,0,1-1-.31,5.17,5.17,0,0,1-1.9-1.35,1.52,1.52,0,0,0-.42.16A11.27,11.27,0,0,1,106,8.85c-.49-.79-.93-1.28-1.25-1.89-.19-.37-.51-1-.67-1.27a.74.74,0,0,1-.06-.61.85.85,0,0,0,.1-.67,8.56,8.56,0,0,0-.19-1c-.06-.26.12-.74-.18-.66s-.49.56-.4,1.14c-.08-.22-.44-.45-.55-1s-.23-1-.45-.92-.19.42-.13.9a2.12,2.12,0,0,1-.21-.45c-.07-.18-.21-.45-.42-.4s-.17.32-.1.69c-.09-.17-.15-.25-.33-.18s0,.34.09.68c-.3-.23-.31.07-.31.23s.3.89.44,1.39a2,2,0,0,0,.76,1,4,4,0,0,0,.42.31.55.55,0,0,1,.22.2s.14.45.34,1c.28.76.26,1.52.8,2.85a5.62,5.62,0,0,0,1.81,2.66.46.46,0,0,1,.07.07,2.29,2.29,0,0,0-.19,1,5.8,5.8,0,0,0,2.18,1.44,14.51,14.51,0,0,1-.58,3.22,13.55,13.55,0,0,1-1.87,2.47,15.79,15.79,0,0,1-2.19,2.17c-.2.22-.31.3-.18.49a18.34,18.34,0,0,0,1.76,1.52l0,0c-.87.9-1.9,2-2,2.1-.19-.74-.08-.86-.45-1.06a1,1,0,0,0-1.22.43c-.25.35-.91.59-1.35.89a3.67,3.67,0,0,0-.63.63c-.29.27-.4.23-.43.46a.14.14,0,0,0,.17.14s-.17.18-.13.32a.16.16,0,0,0,.22.08c0,.05-.18.15-.13.3a.15.15,0,0,0,.22.08A.27.27,0,0,0,99,30a.26.26,0,0,0,.23,0c0,.1-.08.35.17.4s.62-.27.69-.35a2,2,0,0,0,.36-.23c.32-.31.69-.76,1-1.06a2.87,2.87,0,0,0,.37,1.1,1.8,1.8,0,0,0,1.63.75,5.22,5.22,0,0,0,2.55-1.38c.54-.42,1.4-1.13,2.24-1.84a12,12,0,0,0,2.63.84c.23,1,.54,2.31.57,2.73a9.58,9.58,0,0,0-.38,2.3,4.67,4.67,0,0,1-.49,2.62c-.25.35-.63.33-.86.9a1.42,1.42,0,0,0,.32,1.51,2.43,2.43,0,0,1,.46,1.38,2.09,2.09,0,0,0,.39,1.26c0,.14,0,.81.76.84.36,0,.42-.18.39-.27a.36.36,0,0,0,.27,0c.12-.05.11-.15.08-.19a.31.31,0,0,0,.17,0,.15.15,0,0,0,.08-.17s.13,0,.16,0,0-.05,0-.13a.17.17,0,0,0,.14-.07.18.18,0,0,0,0-.2.81.81,0,0,1-.27-.49c0-.2-.07-1-.18-1.45a4.77,4.77,0,0,1-.3-1.51,19.26,19.26,0,0,1,1.34-2.9,8.35,8.35,0,0,0,1-3.37c0-.49-.06-1.64-.1-2.52h0a8.38,8.38,0,0,0,2-.29c.62-.13.7-.17.55-.65s-.53-1.47-1-3a18.91,18.91,0,0,1-1-4.53,18.67,18.67,0,0,1,.5-3.13c.12-.67.18-1,.2-1.13a3.39,3.39,0,0,1,1,.58,2.38,2.38,0,0,0,.54-.33c.89.58,1.07,1.22,1.88,2a8,8,0,0,1,1.52,2,4.78,4.78,0,0,1-.11.73,4.55,4.55,0,0,1-.65,1.1c0,.1,0,.29-.12.63a2.36,2.36,0,0,0,.53,1.59c.42.63,1.94.33,2,.12a.48.48,0,0,0-.07-.3c.41-.3.8-1,.49-2.66a11.08,11.08,0,0,0-.26-1.13,6.49,6.49,0,0,0,.64-1.78l.66-.49a2.07,2.07,0,0,0,.76.29,13.32,13.32,0,0,1,1.83-1.67c.15.43.24.66.73,2.34A4.83,4.83,0,0,1,127,22a8.84,8.84,0,0,1-.59,1.72.57.57,0,0,0,.23.15c-.26.59-.56,1.22-.77,1.75-.46,1.13-1,2.49-1.65,3.87a4.91,4.91,0,0,0,.86.61,13.74,13.74,0,0,0-.86,2,27,27,0,0,0-.55,4c0,.39-.42.75-.63,1.37a1.85,1.85,0,0,0,.15,1.31c.11.24,0,.75.06,1.54a2.43,2.43,0,0,0,.44,1.35,1.66,1.66,0,0,0,.14.13c0,.05.12.17.2.19a.28.28,0,0,0,.3-.08.26.26,0,0,0,.23.14c.11,0,.18,0,.2-.1A.24.24,0,0,0,125,42a.2.2,0,0,0,.15-.15.34.34,0,0,0,.32.12.25.25,0,0,0,.19-.16.56.56,0,0,0,.71,0c.07-.12-.15-.66-.33-.92a7.88,7.88,0,0,1-.17-.93c-.06-.51-.48-2-.5-2.58a2.1,2.1,0,0,1,.26-1.23c.63-1.76,1.15-1.84,1.65-2.85a20.33,20.33,0,0,0,.87-2.4,8.19,8.19,0,0,0,.85,0c.42-1,1.71-3.78,1.93-4.29a4.86,4.86,0,0,1,1.17.65c.54.42.6,1.56.69,2.3a4.71,4.71,0,0,0,1.09.17c-.44.83-.2,1.52-1.37,3.26a6.67,6.67,0,0,1-1.29,1,1,1,0,0,0-.64,1.11c0,.65,1.39.86,2,1.85a11.1,11.1,0,0,0,1,2,.92.92,0,0,0,1.25.32c.29-.16-.36-.65-.46-1.79a11.86,11.86,0,0,0-.59-2.51c0-.15.21-.42.37-.62.95-1.06,2-2.07,2.53-2.66a5.34,5.34,0,0,0,1.45-2.63.93.93,0,0,0,.31-.18,5.07,5.07,0,0,0-.83-2.63A31.94,31.94,0,0,0,134.8,23.07Z" style="fill:#92d400"/><g id="final"><path d="M16.62,29.34c-4.1,0-6.61-2.78-6.61-7.29s2.58-7.22,6.61-7.22A11.37,11.37,0,0,1,21.53,16V7.4a16.72,16.72,0,0,0-6-1.11A15.42,15.42,0,0,0,0,22.12c0,9.31,6.12,15.49,15.51,15.49A18.24,18.24,0,0,0,24.39,35a15.46,15.46,0,0,1-2.63-7.12A9.88,9.88,0,0,1,16.62,29.34Z" style="fill:#1e8c45"/><path d="M33.07,7.05V23.79c0,4,.91,5.83,3.83,5.83,2.15,0,3.75-1.11,4.94-3.4V7.05h9.45V36.63H42.53V32h-.07a9.56,9.56,0,0,1-9,5.42c-6.12,0-9.81-4.72-9.81-13V7.05Z" style="fill:#1e8c45"/><path d="M74,7.77a8.66,8.66,0,0,0-5.22-1.48,7.67,7.67,0,0,0-6.89,6.17V7.05H53.45V36.63h8.48V22c0-4.75,3.41-6.08,4.8-6.08a5.38,5.38,0,0,1,1.74.29,17.35,17.35,0,0,1,3.86-6.81A15.93,15.93,0,0,1,74,7.77Z" style="fill:#1e8c45"/><path d="M79.7,24.69c.76,3.68,3.2,5.76,7,5.76A10.16,10.16,0,0,0,93,28l4.31,5.14a17.62,17.62,0,0,1-12,4.45c-9.46,0-15.65-6.18-15.65-15.49S75.87,6.29,84.5,6.29c8,0,13.77,5.9,13.77,14.79v3.61Zm4.59-11.18c-2.58,0-4.31,2.15-4.59,6h9.11C88.74,15.59,87.21,13.51,84.29,13.51Z" style="fill:#1e8c45"/></g></g></g></g></svg>