<?xml version="1.0" encoding="utf-8"?>
<!-- Generator: Adobe Illustrator 21.0.2, SVG Export Plug-In . SVG Version: 6.00 Build 0)  -->
<svg version="1.1" id="Layer_2" xmlns="http://www.w3.org/2000/svg" xmlns:xlink="http://www.w3.org/1999/xlink" x="0px" y="0px"
	 viewBox="0 0 284.6 94" style="enable-background:new 0 0 284.6 94;" xml:space="preserve">
<style type="text/css">
	.st0{fill:#00BBE0;}
</style>
<circle class="st0" cx="84.9" cy="25.2" r="7"/>
<path class="st0" d="M63.4,1.9c0,0,1.2-0.3,2.1,0c0.9,0.3,1.4,0.9,1.4,0.9s-7.5,7-9.2,15.3c-1.7,8.3,1.2,19.1,1.2,19.1h-3.4
	c0,0-5-10.6-1.4-21.4C56.9,7.1,63.4,1.9,63.4,1.9z"/>
<path class="st0" d="M70.9,7.1c0,0,0.9-0.2,1.7,0c0.7,0.2,1.1,0.7,1.1,0.7s-6,5.6-7.4,12.2c-1.3,6.6,0.9,15.2,0.9,15.2h-2.7
	c0,0-4-8.4-1.1-17.1C65.7,11.2,70.9,7.1,70.9,7.1z"/>
<path class="st0" d="M77.3,12.9c0,0,0.7-0.1,1.2,0c0.5,0.1,0.8,0.5,0.8,0.5s-4.3,4-5.3,8.8c-1,4.7,0.7,10.9,0.7,10.9h-1.9
	c0,0-2.9-6-0.8-12.2C73.6,15.9,77.3,12.9,77.3,12.9z"/>
<path class="st0" d="M106.8,1.9c0,0-1.2-0.3-2.1,0c-0.9,0.3-1.4,0.9-1.4,0.9s7.5,7,9.2,15.3c1.7,8.3-1.2,19.1-1.2,19.1h3.4
	c0,0,5-10.6,1.4-21.4C113.3,7.1,106.8,1.9,106.8,1.9z"/>
<path class="st0" d="M99.3,7.1c0,0-0.9-0.2-1.7,0c-0.7,0.2-1.1,0.7-1.1,0.7s6,5.6,7.4,12.2c1.3,6.6-0.9,15.2-0.9,15.2h2.7
	c0,0,4-8.4,1.1-17.1C104.5,11.2,99.3,7.1,99.3,7.1z"/>
<path class="st0" d="M92.9,12.9c0,0-0.7-0.1-1.2,0c-0.5,0.1-0.8,0.5-0.8,0.5s4.3,4,5.3,8.8c1,4.7-0.7,10.9-0.7,10.9h1.9
	c0,0,2.9-6,0.8-12.2C96.6,15.9,92.9,12.9,92.9,12.9z"/>
<g>
	<path class="st0" d="M7.1,63.4l0.7,0.6c2.5,2,5.6,3.6,8.8,3.6c1.4,0,3.6-0.6,3.6-2.3c0-1.8-1.9-1.9-3.1-2.2l-2.8-0.5
		c-5.5-1-10.1-4.2-10.1-10.3c0-9.2,8.4-14.4,16.8-14.4c4.4,0,8.5,1.1,12.3,3.4l-3.8,9.9c-2.4-1.6-5.1-2.9-8.2-2.9
		c-1.2,0-3,0.5-3,2.1c0,1.4,1.8,1.6,2.8,1.9l3.2,0.7c6,1.3,10.3,4.5,10.3,11.1c0,9.3-8.4,13.8-16.8,13.8c-4.9,0-10.6-1.3-14.9-3.6
		L7.1,63.4z"/>
	<path class="st0" d="M37.1,38.4h13.6v13.1h8.6V38.4h13.6v38.8H59.3V63.8h-8.6v13.5H37.1C37.1,77.3,37.1,38.4,37.1,38.4z"/>
	<path class="st0" d="M77.6,38.4h14.1v38.8H77.6V38.4z"/>
	<path class="st0" d="M96.2,38.4h13.5L122.4,60h0.4c-0.6-3.2-1.2-6.6-1.2-9.9V38.4h13.5v38.8h-13.5l-12.4-20.4h-0.4
		c0.5,2.7,0.9,5.2,0.9,7.8v12.6H96.2L96.2,38.4L96.2,38.4z"/>
	<path class="st0" d="M139.5,38.4h26.1V49h-11.9v3.7h10.9v10.1h-10.9v3.8h12.3v10.6h-26.5V38.4z"/>
	<path class="st0" d="M189.1,38.4h26v11.1h-11.8v4h10.4v10.1h-10.4v13.6h-14.2C189.1,77.3,189.1,38.4,189.1,38.4z"/>
	<path class="st0" d="M232.9,43.3h0.1c2.9-4.3,6.5-6.1,11-6.1c5,0,9.4,2.3,11.9,7.4c2.4-4.8,7.1-7.4,11.8-7.4
		c8.9,0,11.9,6.4,11.9,15.4v24.7h-12.4V58.7c0-4,0.1-10.6-5.1-10.6c-5.7,0-5.9,6-5.9,10.6v18.5h-12.4V58.7c0-4.3,0-10.9-5.5-10.9
		c-5.5,0-5.5,6.6-5.5,10.9v18.5h-12.4V38.4h12.4L232.9,43.3L232.9,43.3z"/>
</g>
<g>
	<path class="st0" d="M10.1,83.7c-0.5-0.2-1.2-0.4-1.8-0.4c-0.2,0-0.9,0-0.9,0.4c0,0.7,2.6,1.6,2.6,3.3c0,1.2-0.8,2.5-3.4,2.5
		c-0.8,0-1.7-0.1-2.5-0.2l-0.2-2.4c0.6,0.2,1.4,0.5,2.1,0.5c0.3,0,0.9,0,0.9-0.4c0-0.8-2.6-1.5-2.6-3.5c0-1.1,0.8-2.3,3.3-2.3
		c0.8,0,1.6,0.1,2.3,0.3L10.1,83.7z"/>
	<path class="st0" d="M14.8,85.4c0,0.4-0.1,0.8-0.1,1.2c0,0.4,0.1,0.8,0.6,0.8c0.3,0,0.5-0.1,0.8-0.2l-0.4,2
		c-0.6,0.1-1.2,0.2-1.8,0.2c-1.2,0-2.1-0.3-2.1-1.6c0-0.8,0.1-1.6,0.2-2.5h-1l0.1-2h1.1l0.1-1.1l2.7-0.6l-0.1,1.7h1.2l-0.1,2H14.8z"
		/>
	<path class="st0" d="M20.2,83.9c0.4-0.4,0.8-0.7,1.4-0.7c0.2,0,0.3,0,0.4,0l0.1,2.4c-0.2-0.1-0.4-0.1-0.6-0.1
		c-0.7,0-1.1,0.3-1.3,0.9c-0.2,0.5-0.2,1.5-0.2,2c0,0.3,0,0.6,0,0.9h-2.9c0.1-1.6,0.3-3,0.3-6h2.8L20.2,83.9L20.2,83.9z"/>
	<path class="st0" d="M30.4,86.3c0,2.2-1.8,3.2-3.8,3.2c-2.6,0-3.7-1.5-3.7-3c0-2.2,1.8-3.3,3.8-3.3C28.6,83.2,30.4,84.2,30.4,86.3z
		 M25.8,86.4c0,0.5,0.2,1,0.8,1c0.6,0,0.9-0.7,0.9-1.3c0-0.5-0.3-1-0.8-1C26,85.2,25.8,85.8,25.8,86.4z"/>
	<path class="st0" d="M34.6,84c0.3-0.3,1-0.8,2.2-0.8c1.7,0,2.2,0.8,2.2,1.8c0,0.5-0.2,2.6-0.2,4.4h-2.9c0.1-0.9,0.2-1.8,0.2-2.7
		c0-0.4,0-1.2-0.6-1.2c-0.6,0-0.8,0.6-0.9,1.1c-0.2,0.9-0.2,1.9-0.2,2.8h-3c0.3-2,0.3-4,0.4-6h2.9L34.6,84z"/>
	<path class="st0" d="M40.7,89.7c0.7,0.3,1.6,0.5,2.4,0.5c0.9,0,1.3-0.5,1.3-1.4c-0.6,0.4-1.2,0.6-1.8,0.6c-1.6,0-2.5-1.2-2.5-2.7
		c0-2.1,1.5-3.5,4-3.5c1.3,0,2.4,0.2,3.4,0.4c-0.1,1.4-0.2,3.8-0.3,6.2c0,1.4-0.6,2.4-3,2.4c-1.1,0-2.3-0.2-3.4-0.4L40.7,89.7z
		 M44.1,85.3c-0.7,0-1.2,0.5-1.2,1.2c0,0.4,0.2,0.8,0.7,0.8c0.9,0,1-1.3,1-2C44.4,85.3,44.2,85.3,44.1,85.3z"/>
	<path class="st0" d="M51.3,86.8c0,0.8,0.7,0.9,1.3,0.9c0.7,0,1.5-0.2,2.2-0.4l-0.3,2.1c-0.7,0.1-1.5,0.2-2.2,0.2
		c-0.9,0-3.8,0-3.8-2.9c0-1,0.4-3.4,3.6-3.4c1.8,0,3.3,0.7,3.3,2.7c0,0.3,0,0.6-0.1,0.9C55.3,86.8,51.3,86.8,51.3,86.8z M52.7,85.7
		v-0.2c0-0.4-0.2-0.7-0.6-0.7c-0.5,0-0.7,0.4-0.7,0.9H52.7z"/>
	<path class="st0" d="M59.3,83.9c0.4-0.4,0.8-0.7,1.4-0.7c0.2,0,0.3,0,0.4,0l0.1,2.4c-0.2-0.1-0.4-0.1-0.6-0.1
		c-0.7,0-1.1,0.3-1.3,0.9c-0.2,0.5-0.2,1.5-0.2,2c0,0.3,0,0.6,0,0.9h-2.9c0.1-1.6,0.3-3,0.3-6h2.8V83.9z"/>
	<path class="st0" d="M69.8,84.3h2.9l-0.1,2.1c-0.5,0-1,0-1.5,0h-1.5c0,0.6-0.1,2.4-0.1,3h-3.2c0.3-2,0.4-5,0.4-8h6.8l-0.1,2.2
		c-0.6,0-1.3,0-1.9,0h-1.7L69.8,84.3z"/>
	<path class="st0" d="M74.9,83.6c1.1-0.2,2.2-0.4,3.2-0.4c1.7,0,2.5,0.7,2.5,1.5c0,1.3-0.2,2.2-0.2,4.6h-2.8
		c0.1-0.8,0.1-1.6,0.2-2.3c-0.3,0.1-1.2,0.2-1.2,0.6c0,0.2,0.2,0.3,0.4,0.3c0.1,0,0.3,0,0.4-0.1l-0.5,1.7c-0.3,0-0.6,0.1-0.8,0.1
		c-1.6,0-2.3-0.9-2.3-1.8c0-2.5,4-1.9,4-2.6c0-0.3-0.3-0.3-0.5-0.3c-0.8,0-1.8,0.3-2.6,0.5L74.9,83.6z"/>
	<path class="st0" d="M84.8,84L84.8,84c0.5-0.6,1.1-0.8,1.9-0.8c0.7,0,1.4,0.2,1.8,0.8c0.5-0.6,1.1-0.8,1.9-0.8c1,0,2,0.4,2,1.6
		c0,0.3-0.2,2.5-0.2,4.6h-2.9c0.1-1,0.2-2.1,0.2-3.1c0-0.3,0-0.8-0.4-0.8c-0.3,0-0.4,0.3-0.5,0.6c-0.1,0.6-0.2,1.4-0.2,3.4h-2.9
		c0.1-1,0.2-2.1,0.2-3.1c0-0.3,0-0.8-0.4-0.8c-0.4,0-0.5,0.7-0.5,1c-0.1,1-0.1,2-0.1,2.9h-2.9c0-0.7,0.3-3.9,0.3-6h2.7L84.8,84z"/>
	<path class="st0" d="M97,83.3c-0.2,1.9-0.2,4-0.2,6h-3.1c0.2-1.8,0.3-3.4,0.3-6H97z M97,81.2c0,0.4-0.1,1-0.1,1.6h-2.8
		c0-0.6,0-1.1,0-1.6H97z"/>
	<path class="st0" d="M101.5,81.3c-0.2,1.4-0.4,5.9-0.5,8h-3c0.2-1.2,0.4-6,0.5-8H101.5z"/>
	<path class="st0" d="M105.9,83.3c-0.2,1.9-0.2,4-0.2,6h-3.1c0.2-1.8,0.3-3.4,0.3-6H105.9z M105.9,81.2c0,0.4-0.1,1-0.1,1.6H103
		c0-0.6,0-1.1,0-1.6H105.9z"/>
	<path class="st0" d="M109.7,86.8c0,0.8,0.7,0.9,1.3,0.9c0.7,0,1.5-0.2,2.2-0.4l-0.3,2.1c-0.7,0.1-1.5,0.2-2.2,0.2
		c-0.9,0-3.8,0-3.8-2.9c0-1,0.4-3.4,3.6-3.4c1.8,0,3.3,0.7,3.3,2.7c0,0.3,0,0.6-0.1,0.9C113.7,86.8,109.7,86.8,109.7,86.8z
		 M111.1,85.7v-0.2c0-0.4-0.2-0.7-0.6-0.7c-0.5,0-0.7,0.4-0.7,0.9H111.1z"/>
	<path class="st0" d="M120,85.4c-0.5-0.2-0.9-0.3-1.4-0.3c-0.2,0-0.7,0-0.7,0.2c0,0.3,2,0.9,2,2.3c0,1.5-1.7,1.9-2.9,1.9
		c-0.7,0-1.5-0.1-2.2-0.3l-0.2-2.1c0.6,0.2,1.2,0.4,1.8,0.4c0.1,0,0.6,0,0.6-0.2c0-0.4-2-0.9-2-2.4c0-0.9,0.5-1.8,2.6-1.8
		c0.8,0,1.6,0.1,2.3,0.2L120,85.4z"/>
	<path class="st0" d="M121.2,89.3l0.1-2.5h2.7l-0.1,2.5H121.2z"/>
	<path class="st0" d="M136.1,83.7c-0.5-0.2-1.2-0.4-1.8-0.4c-0.2,0-0.9,0-0.9,0.4c0,0.7,2.6,1.6,2.6,3.3c0,1.2-0.8,2.5-3.4,2.5
		c-0.8,0-1.7-0.1-2.5-0.2l-0.2-2.4c0.6,0.2,1.4,0.5,2.1,0.5c0.3,0,0.9,0,0.9-0.4c0-0.8-2.6-1.5-2.6-3.5c0-1.1,0.8-2.3,3.3-2.3
		c0.8,0,1.6,0.1,2.3,0.3L136.1,83.7z"/>
	<path class="st0" d="M140.8,85.4c0,0.4-0.1,0.8-0.1,1.2c0,0.4,0.1,0.8,0.6,0.8c0.3,0,0.5-0.1,0.8-0.2l-0.4,2
		c-0.6,0.1-1.2,0.2-1.8,0.2c-1.2,0-2.1-0.3-2.1-1.6c0-0.8,0.1-1.6,0.2-2.5h-1l0.1-2h1.1l0.1-1.1l2.7-0.6l-0.1,1.7h1.2l-0.1,2
		L140.8,85.4L140.8,85.4z"/>
	<path class="st0" d="M146.2,83.9c0.4-0.4,0.8-0.7,1.4-0.7c0.2,0,0.3,0,0.4,0l0.1,2.4c-0.2-0.1-0.4-0.1-0.6-0.1
		c-0.7,0-1.1,0.3-1.3,0.9c-0.2,0.5-0.2,1.5-0.2,2c0,0.3,0,0.6,0,0.9h-2.9c0.1-1.6,0.3-3,0.3-6h2.8C146.2,83.3,146.2,83.9,146.2,83.9
		z"/>
	<path class="st0" d="M156.4,86.3c0,2.2-1.8,3.2-3.8,3.2c-2.6,0-3.7-1.5-3.7-3c0-2.2,1.8-3.3,3.8-3.3
		C154.6,83.2,156.4,84.2,156.4,86.3z M151.8,86.4c0,0.5,0.2,1,0.8,1c0.6,0,0.9-0.7,0.9-1.3c0-0.5-0.3-1-0.8-1
		C152,85.2,151.8,85.8,151.8,86.4z"/>
	<path class="st0" d="M160.5,84c0.3-0.3,1-0.8,2.2-0.8c1.7,0,2.2,0.8,2.2,1.8c0,0.5-0.2,2.6-0.2,4.4h-2.9c0.1-0.9,0.2-1.8,0.2-2.7
		c0-0.4,0-1.2-0.6-1.2c-0.6,0-0.8,0.6-0.9,1.1c-0.2,0.9-0.2,1.9-0.2,2.8h-3c0.3-2,0.3-4,0.4-6h2.9L160.5,84z"/>
	<path class="st0" d="M166.7,89.7c0.7,0.3,1.6,0.5,2.4,0.5c0.9,0,1.3-0.5,1.3-1.4c-0.6,0.4-1.2,0.6-1.8,0.6c-1.6,0-2.5-1.2-2.5-2.7
		c0-2.1,1.5-3.5,4-3.5c1.3,0,2.4,0.2,3.4,0.4c-0.1,1.4-0.2,3.8-0.3,6.2c0,1.4-0.6,2.4-3,2.4c-1.1,0-2.3-0.2-3.4-0.4L166.7,89.7z
		 M170.1,85.3c-0.7,0-1.2,0.5-1.2,1.2c0,0.4,0.2,0.8,0.7,0.8c0.9,0,1-1.3,1-2C170.4,85.3,170.2,85.3,170.1,85.3z"/>
	<path class="st0" d="M177.3,86.8c0,0.8,0.7,0.9,1.3,0.9c0.7,0,1.5-0.2,2.2-0.4l-0.3,2.1c-0.7,0.1-1.5,0.2-2.2,0.2
		c-0.9,0-3.8,0-3.8-2.9c0-1,0.4-3.4,3.6-3.4c1.8,0,3.3,0.7,3.3,2.7c0,0.3,0,0.6-0.1,0.9C181.3,86.8,177.3,86.8,177.3,86.8z
		 M178.7,85.7v-0.2c0-0.4-0.2-0.7-0.6-0.7c-0.5,0-0.7,0.4-0.7,0.9H178.7z"/>
	<path class="st0" d="M185.3,83.9c0.4-0.4,0.8-0.7,1.4-0.7c0.2,0,0.3,0,0.4,0l0.1,2.4c-0.2-0.1-0.4-0.1-0.6-0.1
		c-0.7,0-1.1,0.3-1.3,0.9c-0.2,0.5-0.2,1.5-0.2,2c0,0.3,0,0.6,0,0.9h-2.9c0.1-1.6,0.3-3,0.3-6h2.8C185.3,83.3,185.3,83.9,185.3,83.9
		z"/>
	<path class="st0" d="M199.2,89.3c-0.7,0.1-1.5,0.2-2.3,0.2c-1.7,0-4.7-0.6-4.7-3.9c0-2.9,2.4-4.4,5.1-4.4c0.8,0,1.5,0.1,2.3,0.2
		l0.1,2.2c-0.6-0.2-1.2-0.3-1.8-0.3c-2,0-2.5,1.5-2.5,2.2c0,1.2,1,1.8,2.1,1.8c0.7,0,1.4-0.1,2.2-0.3L199.2,89.3z"/>
	<path class="st0" d="M208,86.3c0,2.2-1.8,3.2-3.8,3.2c-2.6,0-3.7-1.5-3.7-3c0-2.2,1.8-3.3,3.8-3.3C206.3,83.2,208,84.2,208,86.3z
		 M203.4,86.4c0,0.5,0.2,1,0.8,1c0.6,0,0.9-0.7,0.9-1.3c0-0.5-0.3-1-0.8-1C203.7,85.2,203.4,85.8,203.4,86.4z"/>
	<path class="st0" d="M212,84L212,84c0.5-0.6,1.1-0.8,1.9-0.8c0.7,0,1.4,0.2,1.8,0.8c0.5-0.6,1.1-0.8,1.9-0.8c1,0,2,0.4,2,1.6
		c0,0.3-0.2,2.5-0.2,4.6h-2.9c0.1-1,0.2-2.1,0.2-3.1c0-0.3,0-0.8-0.4-0.8c-0.3,0-0.4,0.3-0.5,0.6c-0.1,0.6-0.2,1.4-0.2,3.4h-2.9
		c0.1-1,0.2-2.1,0.2-3.1c0-0.3,0-0.8-0.4-0.8c-0.4,0-0.5,0.7-0.5,1c-0.1,1-0.1,2-0.1,2.9H209c0-0.7,0.3-3.9,0.3-6h2.7L212,84z"/>
	<path class="st0" d="M223.8,84L223.8,84c0.5-0.6,1.1-0.8,1.9-0.8c0.7,0,1.4,0.2,1.8,0.8c0.5-0.6,1.1-0.8,1.9-0.8c1,0,2,0.4,2,1.6
		c0,0.3-0.2,2.5-0.2,4.6h-2.9c0.1-1,0.2-2.1,0.2-3.1c0-0.3,0-0.8-0.4-0.8c-0.3,0-0.4,0.3-0.5,0.6c-0.1,0.6-0.2,1.4-0.2,3.4h-2.9
		c0.1-1,0.2-2.1,0.2-3.1c0-0.3,0-0.8-0.4-0.8c-0.4,0-0.5,0.7-0.5,1c-0.1,1-0.1,2-0.1,2.9h-2.9c0-0.7,0.3-3.9,0.3-6h2.7L223.8,84z"/>
	<path class="st0" d="M236.8,88.7c-0.6,0.6-1.2,0.8-2.1,0.8c-1.6,0-2.1-0.8-2.1-1.8c0-0.2,0.3-3.1,0.3-4.4h2.9
		c0,0.6-0.2,2.4-0.2,2.9c0,0.5,0,1,0.5,1c0.3,0,0.6-0.3,0.7-0.6c0.2-0.6,0.3-2.9,0.3-3.3h2.9c-0.2,2-0.3,4-0.3,6h-2.8L236.8,88.7
		L236.8,88.7z"/>
	<path class="st0" d="M244.3,84c0.3-0.3,1-0.8,2.2-0.8c1.7,0,2.2,0.8,2.2,1.8c0,0.5-0.2,2.6-0.2,4.4h-2.9c0.1-0.9,0.2-1.8,0.2-2.7
		c0-0.4,0-1.2-0.6-1.2c-0.6,0-0.8,0.6-0.9,1.1c-0.2,0.9-0.2,1.9-0.2,2.8h-3c0.3-2,0.3-4,0.4-6h2.9L244.3,84z"/>
	<path class="st0" d="M253.3,83.3c-0.2,1.9-0.2,4-0.2,6H250c0.2-1.8,0.3-3.4,0.3-6H253.3z M253.3,81.2c0,0.4-0.1,1-0.1,1.6h-2.8
		c0-0.6,0-1.1,0-1.6H253.3z"/>
	<path class="st0" d="M258,85.4c0,0.4-0.1,0.8-0.1,1.2c0,0.4,0.1,0.8,0.6,0.8c0.3,0,0.5-0.1,0.8-0.2l-0.4,2
		c-0.6,0.1-1.2,0.2-1.8,0.2c-1.2,0-2.1-0.3-2.1-1.6c0-0.8,0.1-1.6,0.2-2.5h-1l0.1-2h1.1l0.1-1.1l2.7-0.6l-0.1,1.7h1.2l-0.1,2
		L258,85.4L258,85.4z"/>
	<path class="st0" d="M263.7,83.3c-0.2,1.9-0.2,4-0.2,6h-3.1c0.2-1.8,0.3-3.4,0.3-6H263.7z M263.7,81.2c0,0.4-0.1,1-0.1,1.6h-2.8
		c0-0.6,0-1.1,0-1.6H263.7z"/>
	<path class="st0" d="M267.5,86.8c0,0.8,0.7,0.9,1.3,0.9c0.7,0,1.5-0.2,2.2-0.4l-0.3,2.1c-0.7,0.1-1.5,0.2-2.2,0.2
		c-0.9,0-3.8,0-3.8-2.9c0-1,0.4-3.4,3.6-3.4c1.8,0,3.3,0.7,3.3,2.7c0,0.3,0,0.6-0.1,0.9C271.5,86.8,267.5,86.8,267.5,86.8z
		 M268.9,85.7v-0.2c0-0.4-0.2-0.7-0.6-0.7c-0.5,0-0.7,0.4-0.7,0.9H268.9z"/>
	<path class="st0" d="M277.9,85.4c-0.5-0.2-0.9-0.3-1.4-0.3c-0.2,0-0.7,0-0.7,0.2c0,0.3,2,0.9,2,2.3c0,1.5-1.7,1.9-2.9,1.9
		c-0.7,0-1.5-0.1-2.2-0.3l-0.2-2.1c0.6,0.2,1.2,0.4,1.8,0.4c0.1,0,0.6,0,0.6-0.2c0-0.4-2-0.9-2-2.4c0-0.9,0.5-1.8,2.6-1.8
		c0.8,0,1.6,0.1,2.3,0.2L277.9,85.4z"/>
	<path class="st0" d="M279,89.3l0.1-2.5h2.7l-0.1,2.5H279z"/>
</g>
<path class="st0" d="M184.4,71.2c0,6,0,6-7,6c-7,0-7,0-7-6c0-6.2,0-6.2,7-6.2C184.4,65.1,184.4,65.1,184.4,71.2z"/>
<path class="st0" d="M234.8,74"/>
<path class="st0" d="M221.8,74"/>
<path class="st0" d="M244.2,71.9"/>
<path class="st0" d="M234.9,71.9"/>
</svg>
